<svg width="79" height="13" viewBox="0 0 79 13" fill="none" xmlns="http://www.w3.org/2000/svg">
<path d="M10.0494 3C10.0494 2.44772 10.4971 2 11.0494 2H12.0494C12.6017 2 13.0494 2.44772 13.0494 3V11C13.0494 11.5523 12.6017 12 12.0494 12H11.0494C10.4971 12 10.0494 11.5523 10.0494 11V3Z" fill="white"/>
<path d="M15.0494 1C15.0494 0.447715 15.4971 0 16.0494 0H17.0494C17.6017 0 18.0494 0.447715 18.0494 1V11C18.0494 11.5523 17.6017 12 17.0494 12H16.0494C15.4971 12 15.0494 11.5523 15.0494 11V1Z" fill="white"/>
<path d="M5.04941 6.5C5.04941 5.94772 5.49712 5.5 6.04941 5.5H7.04941C7.60169 5.5 8.04941 5.94772 8.04941 6.5V11C8.04941 11.5523 7.60169 12 7.04941 12H6.04941C5.49712 12 5.04941 11.5523 5.04941 11V6.5Z" fill="white"/>
<path d="M0.049408 9C0.049408 8.44772 0.497123 8 1.04941 8H2.04941C2.60169 8 3.04941 8.44772 3.04941 9V11C3.04941 11.5523 2.60169 12 2.04941 12H1.04941C0.497123 12 0.049408 11.5523 0.049408 11V9Z" fill="white"/>
<path fill-rule="evenodd" clip-rule="evenodd" d="M34.5499 2.58753C37.0164 2.58764 39.3887 3.55505 41.1763 5.28982C41.3109 5.42375 41.5261 5.42206 41.6586 5.28603L42.9454 3.96045C43.0125 3.89146 43.05 3.798 43.0494 3.70076C43.0488 3.60353 43.0104 3.51052 42.9424 3.44234C38.2505 -1.14745 30.8485 -1.14745 26.1566 3.44234C26.0886 3.51047 26.05 3.60345 26.0494 3.70069C26.0488 3.79792 26.0862 3.89141 26.1532 3.96045L27.4404 5.28603C27.5729 5.42226 27.7882 5.42396 27.9227 5.28982C29.7106 3.55494 32.0831 2.58752 34.5499 2.58753ZM34.5853 6.58938C35.9405 6.58929 37.2474 7.10346 38.2519 8.03199C38.3878 8.16376 38.6018 8.16091 38.7343 8.02555L40.0196 6.69997C40.0873 6.63044 40.1248 6.53611 40.1238 6.4381C40.1229 6.34008 40.0834 6.24656 40.0144 6.17844C36.9553 3.27385 32.2179 3.27385 29.1589 6.17844C29.0898 6.24656 29.0503 6.34013 29.0494 6.43817C29.0485 6.53622 29.0862 6.63054 29.154 6.69997L30.4389 8.02555C30.5714 8.16091 30.7854 8.16376 30.9213 8.03199C31.9252 7.10408 33.231 6.58995 34.5853 6.58938ZM37.199 9.17672C37.2009 9.27501 37.1631 9.36977 37.0943 9.43863L34.8711 11.7289C34.8059 11.7962 34.717 11.834 34.6243 11.834C34.5316 11.834 34.4427 11.7962 34.3776 11.7289L32.1539 9.43863C32.0852 9.36972 32.0474 9.27492 32.0495 9.17663C32.0515 9.07834 32.0932 8.98527 32.1647 8.91938C33.5846 7.69354 35.6641 7.69354 37.0839 8.91938C37.1554 8.98532 37.197 9.07843 37.199 9.17672Z" fill="white"/>
<path opacity="0.35" d="M51.577 4C51.577 2.08221 53.1316 0.527543 55.0494 0.527543H72.0494C73.9672 0.527543 75.5219 2.08222 75.5219 4V9C75.5219 10.9178 73.9672 12.4725 72.0494 12.4725H55.0494C53.1316 12.4725 51.577 10.9178 51.577 9V4Z" stroke="white" stroke-width="1.05509"/>
<path opacity="0.4" d="M77.0494 5V9.22034C77.8985 8.86291 78.4506 8.0314 78.4506 7.11017C78.4506 6.18894 77.8985 5.35744 77.0494 5Z" fill="white"/>
<path d="M53.0494 4C53.0494 2.89543 53.9448 2 55.0494 2H72.0494C73.154 2 74.0494 2.89543 74.0494 4V9C74.0494 10.1046 73.154 11 72.0494 11H55.0494C53.9448 11 53.0494 10.1046 53.0494 9V4Z" fill="white"/>
</svg>
